<svg width="445" height="545" viewBox="0 0 445 545" fill="none" xmlns="http://www.w3.org/2000/svg">
<path d="M2.62289 491.612C2.62289 506.369 7.74794 518.862 17.9995 529.113C28.2597 539.365 40.7519 544.49 55.4993 544.49H91.0781L116.336 544.5C130.623 544.49 119.623 544.49 136.336 544.5C153.836 544.49 144.881 544.5 158.336 544.5C172.112 544.5 160.836 544.49 175.336 544.49C191.336 544.5 162.336 544.49 181.836 544.5H190.115H256.458L265.623 544.49C283.123 544.49 261.041 544.495 280.123 544.49C299.205 544.485 293.337 544.49 307.123 544.49C320.898 544.49 311.123 544.5 332.623 544.49C343.123 544.49 358.623 544.5 343.123 544.49L355.485 544.5H391.544C405.964 544.5 418.296 539.373 428.566 529.122C438.816 518.87 443.944 506.378 443.944 491.622V387.417H2.62289V491.612Z" fill="#53BAA1"/>
<path d="M2.62289 491.612C2.62289 506.369 7.74794 518.862 17.9995 529.113C28.2597 539.365 40.7519 544.49 55.4993 544.49H91.0781L116.336 544.5C130.623 544.49 119.623 544.49 136.336 544.5C153.836 544.49 144.881 544.5 158.336 544.5C172.112 544.5 160.836 544.49 175.336 544.49C191.336 544.5 162.336 544.49 181.836 544.5H190.115H256.458L265.623 544.49C283.123 544.49 261.041 544.495 280.123 544.49C299.205 544.485 293.337 544.49 307.123 544.49C320.898 544.49 311.123 544.5 332.623 544.49C343.123 544.49 358.623 544.5 343.123 544.49L355.485 544.5H391.544C405.964 544.5 418.296 539.373 428.566 529.122C438.816 518.87 443.944 506.378 443.944 491.622V387.417H2.62289V491.612Z" fill="black" fill-opacity="0.2"/>
<path fill-rule="evenodd" clip-rule="evenodd" d="M181.248 52C172.964 52 166.248 58.7157 166.248 67V263.125H15.1229C6.83862 263.125 0.122894 269.841 0.122894 278.125V358.875C0.122894 367.159 6.83862 373.875 15.1229 373.875H166.248V480C166.248 488.284 172.964 495 181.248 495H261.998C270.282 495 276.998 488.284 276.998 480V373.875H428.123C436.407 373.875 443.123 367.159 443.123 358.875V278.125C443.123 269.841 436.407 263.125 428.123 263.125H276.998V67C276.998 58.7157 270.282 52 261.998 52H181.248Z" fill="#BA536C" fill-opacity="0.64"/>
<path d="M331.719 73.5513L365.855 10.581C368.095 6.41214 367.298 3.21531 363.456 0.967407C359.286 -0.970942 356.082 0.011251 353.843 3.84455L319.23 67.3182C288.773 53.8525 256.561 47.1073 222.592 47.1073C188.616 47.1073 156.4 53.854 125.955 67.3182L91.3411 3.84455C89.0917 0.011251 85.8876 -0.962263 81.7274 0.967407C77.8768 3.22544 77.0797 6.41214 79.3291 10.581L113.466 73.5513C78.8517 91.2033 51.2838 115.787 30.772 147.356C10.2602 178.943 0 213.46 0 250.968H444.701C444.701 213.468 434.439 178.95 413.929 147.356C393.415 115.787 366.007 91.2033 331.719 73.5513ZM134.365 165.143C130.674 168.843 126.265 170.684 121.14 170.684C116.004 170.684 111.685 168.843 108.161 165.143C104.638 161.46 102.876 157.068 102.876 151.926C102.876 146.801 104.638 142.4 108.161 138.709C111.685 135.026 116.015 133.184 121.14 133.184C126.265 133.184 130.674 135.026 134.365 138.709C138.048 142.409 139.898 146.801 139.898 151.926C139.888 157.059 138.039 161.46 134.365 165.143ZM337.004 165.143C333.473 168.843 329.143 170.684 324.027 170.684C318.89 170.684 314.483 168.843 310.798 165.143C307.108 161.46 305.267 157.068 305.267 151.926C305.267 146.801 307.108 142.4 310.798 138.709C314.483 135.026 318.89 133.184 324.027 133.184C329.152 133.184 333.471 135.026 337.004 138.709C340.53 142.409 342.289 146.801 342.289 151.926C342.289 157.059 340.529 161.46 337.004 165.143Z" fill="#53BAA1"/>
<path d="M331.719 73.5513L365.855 10.581C368.095 6.41214 367.298 3.21531 363.456 0.967407C359.286 -0.970942 356.082 0.011251 353.843 3.84455L319.23 67.3182C288.773 53.8525 256.561 47.1073 222.592 47.1073C188.616 47.1073 156.4 53.854 125.955 67.3182L91.3411 3.84455C89.0917 0.011251 85.8876 -0.962263 81.7274 0.967407C77.8768 3.22544 77.0797 6.41214 79.3291 10.581L113.466 73.5513C78.8517 91.2033 51.2838 115.787 30.772 147.356C10.2602 178.943 0 213.46 0 250.968H444.701C444.701 213.468 434.439 178.95 413.929 147.356C393.415 115.787 366.007 91.2033 331.719 73.5513ZM134.365 165.143C130.674 168.843 126.265 170.684 121.14 170.684C116.004 170.684 111.685 168.843 108.161 165.143C104.638 161.46 102.876 157.068 102.876 151.926C102.876 146.801 104.638 142.4 108.161 138.709C111.685 135.026 116.015 133.184 121.14 133.184C126.265 133.184 130.674 135.026 134.365 138.709C138.048 142.409 139.898 146.801 139.898 151.926C139.888 157.059 138.039 161.46 134.365 165.143ZM337.004 165.143C333.473 168.843 329.143 170.684 324.027 170.684C318.89 170.684 314.483 168.843 310.798 165.143C307.108 161.46 305.267 157.068 305.267 151.926C305.267 146.801 307.108 142.4 310.798 138.709C314.483 135.026 318.89 133.184 324.027 133.184C329.152 133.184 333.471 135.026 337.004 138.709C340.53 142.409 342.289 146.801 342.289 151.926C342.289 157.059 340.529 161.46 337.004 165.143Z" fill="black" fill-opacity="0.2"/>
<g filter="url(#filter0_i_2_6)">
<path d="M17.1656 351V289.8H28.8106L51.7606 317.17L74.6256 289.8H86.3556V351H76.0706V304.08L51.7606 333.065L27.3656 304.165V351H17.1656ZM96.193 351V289.8H152.378V300.085H106.478V315.3H143.453V325.5H106.478V340.715H152.378V351H96.193ZM161.271 351V289.8H210.996C213.093 289.8 214.991 290.31 216.691 291.33C218.448 292.35 219.836 293.738 220.856 295.495C221.933 297.252 222.471 299.178 222.471 301.275V339.525C222.471 341.622 221.933 343.548 220.856 345.305C219.836 347.062 218.448 348.45 216.691 349.47C214.991 350.49 213.093 351 210.996 351H161.271ZM173.001 340.715H210.656C211.053 340.715 211.393 340.573 211.676 340.29C212.016 340.007 212.186 339.638 212.186 339.185V301.615C212.186 301.162 212.016 300.793 211.676 300.51C211.393 300.227 211.053 300.085 210.656 300.085H173.001C172.548 300.085 172.151 300.227 171.811 300.51C171.528 300.793 171.386 301.162 171.386 301.615V339.185C171.386 339.638 171.528 340.007 171.811 340.29C172.151 340.573 172.548 340.715 173.001 340.715ZM232.245 351V289.8H279.505C281.601 289.8 283.5 290.31 285.2 291.33C286.956 292.35 288.345 293.738 289.365 295.495C290.441 297.252 290.98 299.178 290.98 301.275V313.43C290.98 314.223 290.895 314.988 290.725 315.725C290.611 316.405 290.413 317.057 290.13 317.68C291.15 319.097 291.943 320.513 292.51 321.93C293.133 323.29 293.445 324.678 293.445 326.095V339.525C293.445 341.622 292.906 343.548 291.83 345.305C290.81 347.062 289.421 348.45 287.665 349.47C285.965 350.49 284.066 351 281.97 351H232.245ZM243.975 340.715H281.63C282.026 340.715 282.366 340.573 282.65 340.29C282.99 340.007 283.16 339.638 283.16 339.185V326.52C283.16 326.067 282.99 325.698 282.65 325.415C282.366 325.132 282.026 324.99 281.63 324.99H243.975C243.578 324.99 243.21 325.132 242.87 325.415C242.586 325.698 242.445 326.067 242.445 326.52V339.185C242.445 339.638 242.586 340.007 242.87 340.29C243.21 340.573 243.578 340.715 243.975 340.715ZM243.975 314.705H279.08C279.533 314.705 279.901 314.563 280.185 314.28C280.468 313.94 280.61 313.572 280.61 313.175V301.615C280.61 301.162 280.468 300.793 280.185 300.51C279.901 300.227 279.533 300.085 279.08 300.085H243.975C243.578 300.085 243.21 300.227 242.87 300.51C242.586 300.793 242.445 301.162 242.445 301.615V313.175C242.445 313.572 242.586 313.94 242.87 314.28C243.21 314.563 243.578 314.705 243.975 314.705ZM314.017 351C311.921 351 309.994 350.49 308.237 349.47C306.481 348.45 305.092 347.062 304.072 345.305C303.052 343.548 302.542 341.622 302.542 339.525V301.275C302.542 299.178 303.052 297.252 304.072 295.495C305.092 293.738 306.481 292.35 308.237 291.33C309.994 290.31 311.921 289.8 314.017 289.8H352.267C354.364 289.8 356.262 290.31 357.962 291.33C359.719 292.35 361.107 293.738 362.127 295.495C363.204 297.252 363.742 299.178 363.742 301.275V339.525C363.742 341.622 363.204 343.548 362.127 345.305C361.107 347.062 359.719 348.45 357.962 349.47C356.262 350.49 354.364 351 352.267 351H314.017ZM314.272 340.715H351.927C352.324 340.715 352.664 340.573 352.947 340.29C353.287 340.007 353.457 339.638 353.457 339.185V301.615C353.457 301.162 353.287 300.793 352.947 300.51C352.664 300.227 352.324 300.085 351.927 300.085H314.272C313.876 300.085 313.507 300.227 313.167 300.51C312.884 300.793 312.742 301.162 312.742 301.615V339.185C312.742 339.638 312.884 340.007 313.167 340.29C313.507 340.573 313.876 340.715 314.272 340.715ZM395.543 351V300.085H370.043V289.8H431.243V300.085H405.743V351H395.543Z" fill="#A153BA"/>
</g>
<defs>
<filter id="filter0_i_2_6" x="17.1656" y="289.8" width="414.077" height="65.2" filterUnits="userSpaceOnUse" color-interpolation-filters="sRGB">
<feFlood flood-opacity="0" result="BackgroundImageFix"/>
<feBlend mode="normal" in="SourceGraphic" in2="BackgroundImageFix" result="shape"/>
<feColorMatrix in="SourceAlpha" type="matrix" values="0 0 0 0 0 0 0 0 0 0 0 0 0 0 0 0 0 0 127 0" result="hardAlpha"/>
<feOffset dy="4"/>
<feGaussianBlur stdDeviation="2"/>
<feComposite in2="hardAlpha" operator="arithmetic" k2="-1" k3="1"/>
<feColorMatrix type="matrix" values="0 0 0 0 0 0 0 0 0 0 0 0 0 0 0 0 0 0 0.25 0"/>
<feBlend mode="normal" in2="shape" result="effect1_innerShadow_2_6"/>
</filter>
</defs>
</svg>
